<?xml version="1.0"?>
<svg xmlns="http://www.w3.org/2000/svg" xmlns:xlink="http://www.w3.org/1999/xlink" id="Capa_1" style="enable-background:new 0 0 512 512;" viewBox="0 0 512 512" x="0px" y="0px" width="512px" height="512px" xml:space="preserve" version="1.1"><g><g>
	<g>
		<g>
			<path class="active-path" d="M 198.998 66.612 c 0 5.627 -1.56 11.112 -4.51 15.861 l 12.741 7.916 c 4.428 -7.128 6.769 -15.351 6.769 -23.777 c 0 -3.652 -0.439 -7.288 -1.305 -10.807 l -14.565 3.584 C 198.705 61.736 198.998 64.167 198.998 66.612 Z" data-original="#000000" data-old_color="#000000" fill="#00AF80"/>
			<path class="active-path" d="M 195.208 51.975 l 13.102 -7.305 c -2.94 -5.273 -6.844 -9.84 -11.604 -13.573 L 187.45 42.9 C 190.633 45.397 193.244 48.45 195.208 51.975 Z" data-original="#000000" data-old_color="#000000" fill="#00AF80"/>
			<path class="active-path" d="M 186.401 25.028 c -5.554 -2.341 -11.447 -3.528 -17.516 -3.528 v 15 c 4.057 0 7.989 0.791 11.688 2.351 L 186.401 25.028 Z" data-original="#000000" data-old_color="#000000" fill="#00AF80"/>
			<path class="active-path" d="M 460.59 271.235 v -54.294 H 238.676 v 54.294 h 81.445 V 467.5 h -41.644 V 512 h 130.745 v -44.5 h -41.644 V 271.235 H 460.59 Z M 394.222 482.5 V 497 H 293.477 v -14.5 H 394.222 Z M 335.121 467.5 V 271.235 h 17.457 V 467.5 H 335.121 Z M 253.676 256.235 v -24.294 H 445.59 v 24.294 H 253.676 Z" data-original="#000000" data-old_color="#000000" fill="#00AF80"/>
			<rect class="active-path" x="396.58" y="236.59" width="15" height="15" data-original="#000000" data-old_color="#000000" fill="#00AF80"/>
			<rect class="active-path" x="343.85" y="236.59" width="42.728" height="15" data-original="#000000" data-old_color="#000000" fill="#00AF80"/>
			<rect class="active-path" x="421.58" y="236.59" width="15" height="15" data-original="#000000" data-old_color="#000000" fill="#00AF80"/>
			<path class="active-path" d="M 309.745 102.939 l 17.994 -17.994 h 41.489 V 0 H 250.261 v 84.945 h 41.489 L 309.745 102.939 Z M 265.26 15 L 265.26 15 h 88.967 v 54.945 h -32.702 l -11.781 11.781 l -11.782 -11.781 H 265.26 V 15 Z" data-original="#000000" data-old_color="#000000" fill="#00AF80"/>
			<polygon class="active-path" points="339.464,30.804 328.858,20.196 304.828,44.227 294.631,34.029 284.024,44.637 304.828,65.439" data-original="#000000" data-old_color="#000000" fill="#00AF80"/>
			<path class="active-path" d="M 282.041 283.735 h -15 v 130.136 h -32.705 v -92.969 h -117.05 l 0.29 -168.856 l 17.797 -17.797 v 97.692 h 64.47 v 49.215 h 26.333 v -15 h -11.333 V 231.94 h 11.333 v -15 h -75.803 v -83.715 h 23.603 v 60.112 h 84.322 v 14.293 h 113.06 v -98.06 h 9.31 v 94.869 h 15 V 94.571 h -39.31 v 98.06 h -83.06 v -14.293 h -58.455 v -60.112 h -3.903 c 14.976 -12.225 24.558 -30.819 24.558 -51.613 C 235.498 29.882 205.616 0 168.885 0 c -36.73 0 -66.612 29.882 -66.612 66.612 c 0 21.65 10.388 40.914 26.435 53.089 l -26.121 26.12 l -0.089 51.791 l -12.85 -13.48 H 51.41 V 512 h 44.68 V 398.766 h 93.567 V 512 h 44.679 v -83.129 h 47.705 V 283.735 Z M 199.843 178.338 h -10.867 v -45.112 h 10.867 V 178.338 Z M 117.273 66.612 c 0 -28.459 23.153 -51.612 51.612 -51.612 s 51.613 23.153 51.613 51.612 c 0 28.46 -23.153 51.613 -51.613 51.613 C 140.426 118.226 117.273 95.072 117.273 66.612 Z M 81.09 497 h -0.001 H 66.41 v -98.234 h 14.68 V 497 Z M 219.336 497 h -14.679 v -98.234 h 14.679 V 497 Z M 219.336 348.079 h -85.258 v 15 h 85.258 v 20.688 H 66.41 v -0.001 V 199.133 h 16.762 c 9.91 10.497 15.56 16.279 19.101 19.463 l -0.013 117.307 h 117.076 V 348.079 Z" data-original="#000000" data-old_color="#000000" fill="#00AF80"/>
		</g>
	</g>
</g></g> </svg>
