<?xml version="1.0"?>
<svg xmlns="http://www.w3.org/2000/svg" viewBox="0 0 512 512" width="512px" height="512px"><g><path class="active-path" d="m 160.008 423 h -70 v -226 h 70 Z m 6.98438 -298.004 c 0 -22.6289 -18.3594 -40.9961 -40.9766 -40.9961 c -22.7031 0 -41.0156 18.3672 -41.0156 40.9961 c 0 22.6367 18.3125 41.0039 41.0156 41.0039 c 22.6172 0 40.9766 -18.3672 40.9766 -41.0039 Z m 255.008 173.668 c 0 -60.668 -12.8164 -105.664 -83.6875 -105.664 c -34.0547 0 -56.9141 17.0313 -66.2461 34.7422 h -0.066406 v -30.7422 h -68 v 226 h 68 v -112.211 c 0 -29.3867 7.48047 -57.8555 43.9063 -57.8555 c 35.9297 0 37.0938 33.6055 37.0938 59.7227 v 110.344 h 69 Z m 90 153.336 v -392 c 0 -33.0859 -26.9141 -60 -60 -60 h -392 c -33.0859 0 -60 26.9141 -60 60 v 392 c 0 33.0859 26.9141 60 60 60 h 392 c 33.0859 0 60 -26.9141 60 -60 Z m -60 -412 c 11.0273 0 20 8.97266 20 20 v 392 c 0 11.0273 -8.97266 20 -20 20 h -392 c -11.0273 0 -20 -8.97266 -20 -20 v -392 c 0 -11.0273 8.97266 -20 20 -20 Z m 0 0" data-original="#000000" data-old_color="#000000" fill="#8897EB"/></g> </svg>
