<?xml version="1.0"?>
<svg xmlns="http://www.w3.org/2000/svg" viewBox="0 0 512 512" width="512px" height="512px"><g><path class="active-path" d="m 256 0 c -140.699 0 -256 116.301 -256 257 c 0 139.883 114.25 255 256 255 c 141.574 0 256 -114.945 256 -255 c 0 -140.699 -115.301 -257 -256 -257 Z m 45 477.5 c -14.3984 3 -29.6992 4.5 -45 4.5 s -30.6016 -1.5 -45 -4.5 v -70.1992 c 0 -16.8008 4.5 -22.8008 10.5 -30.9023 c 3.05469 -3.49219 4.89844 -6.625 18.5977 -27.2969 l -23.0977 -3.60156 c -59.4023 -8.69922 -82.8008 -39.6016 -92.1016 -63.6016 c -12 -32.0977 -5.69922 -72.3008 15.9023 -97.7969 c 3.30078 -3.90234 6 -10.5039 3.60156 -17.4023 c -4.50391 -13.8008 -3.90234 -35.6992 -0.902344 -44.1016 c 15.9063 2.27344 32.2617 13.668 45.9023 21.9023 c 6.28516 3.66797 9.58203 2.69922 12.5977 3 c 10.9609 -2.28125 28.0586 -7.80078 54.3008 -7.80078 c 16.1992 0 33.3008 2.39844 50.1016 7.19922 c 3.00391 -0.070313 7.83203 2.48437 16.1992 -2.39844 c 14.2578 -8.6875 30.0586 -19.6914 45.8984 -21.9023 c 3 8.40234 3.60156 30.3008 -0.898438 44.1016 c -2.40234 6.89844 0.296876 13.5 3.60156 17.4023 c 21.5977 25.5 27.8984 65.6992 15.8984 97.7969 c -9.30078 24 -32.6992 54.9023 -92.1016 63.6016 l -23.0977 3.60156 c 14.1602 21.3672 15.6523 23.9297 18.6016 27.2969 c 5.99609 8.10156 10.4961 14.1016 10.4961 30.9023 Z m 30 -8.69922 v -61.5 c 0 -17.1016 -3.60156 -28.5 -8.40234 -36.9023 c 45.6016 -12.2969 78.0039 -39.3008 92.4023 -78 c 15.3008 -40.7969 8.40234 -89.3984 -17.1016 -123 c 4.50391 -20.0977 4.50391 -52.1992 -6.29688 -67.1992 c -4.80078 -6.59766 -11.4023 -10.1992 -19.8008 -10.1992 c -0.300781 0 -0.300781 0 -0.300781 0 c -23.2617 1.25781 -41.5703 12.9727 -61.1992 24.8984 c -18 -4.80078 -36.3008 -7.19922 -54.6016 -7.19922 c -18.5977 0 -37.1992 2.69922 -53.6953 7.19922 c -20.6641 -12.4609 -38.7969 -23.6719 -62.7031 -24.8984 c -7.5 0 -14.1016 3.60156 -18.9023 10.1992 c -10.7969 15 -10.7969 47.1016 -6.29688 67.1992 c -25.5039 33.6016 -32.4023 82.5 -17.1016 123 c 14.3984 38.6992 46.8008 65.7031 92.4023 78 c -3.72266 6.51172 -6.66797 14.9141 -7.82813 26.2852 c -9.21094 3.17578 -17.1992 4.21094 -24.6289 2.02734 c -7.83594 -2.31641 -13.9414 -7.54688 -19.2461 -16.4688 c -11.9141 -20.0156 -32.207 -36.3555 -55.3125 -34.2305 l 2.63672 29.8828 c 10.6992 -0.980469 21.3477 10.3398 26.8789 19.6719 c 9.125 15.3672 21.418 25.4453 36.5469 29.9141 c 11.2305 3.30859 21.4961 3.23047 32.5508 0.871093 v 40.4492 c -87.3008 -30.6016 -151 -114 -151 -211.801 c 0 -124.199 101.801 -227 226 -227 s 226 102.801 226 227 c 0 97.8008 -63.6992 181.199 -151 211.801 Z m 0 0" data-original="#000000" data-old_color="#000000" fill="#8190ED"/></g> </svg>
