<?xml version="1.0"?>
<svg xmlns="http://www.w3.org/2000/svg" xmlns:xlink="http://www.w3.org/1999/xlink" id="Capa_1" style="enable-background:new 0 0 480 480;" viewBox="0 0 480 480" x="0px" y="0px" width="512px" height="512px" xml:space="preserve" version="1.1"><g><g>
	<g>
		<path class="active-path" d="M 272 176.232 h -64 c -4.418 0 -8 3.582 -8 8 v 224 c 0 4.418 3.582 8 8 8 h 64 c 4.418 0 8 -3.582 8 -8 v -224 C 280 179.813 276.418 176.232 272 176.232 Z M 264 400.232 h -48 v -208 h 48 V 400.232 Z" data-original="#000000" data-old_color="#000000" fill="#00AF80"/>
	</g>
</g><g>
	<g>
		<path class="active-path" d="M 464 144.232 h -64 c -4.418 0 -8 3.582 -8 8 v 256 c 0 4.418 3.582 8 8 8 h 64 c 4.418 0 8 -3.582 8 -8 v -256 C 472 147.813 468.418 144.232 464 144.232 Z M 456 400.232 h -48 v -240 h 48 V 400.232 Z" data-original="#000000" data-old_color="#000000" fill="#00AF80"/>
	</g>
</g><g>
	<g>
		<path class="active-path" d="M 368 320.232 h -64 c -4.418 0 -8 3.582 -8 8 v 80 c 0 4.418 3.582 8 8 8 h 64 c 4.418 0 8 -3.582 8 -8 v -80 C 376 323.813 372.418 320.232 368 320.232 Z M 360 400.232 h -48 v -64 h 48 V 400.232 Z" data-original="#000000" data-old_color="#000000" fill="#00AF80"/>
	</g>
</g><g>
	<g>
		<path class="active-path" d="M 80 208.232 H 16 c -4.418 0 -8 3.582 -8 8 v 192 c 0 4.418 3.582 8 8 8 h 64 c 4.418 0 8 -3.582 8 -8 v -192 C 88 211.813 84.418 208.232 80 208.232 Z M 72 400.232 H 24 v -176 h 48 V 400.232 Z" data-original="#000000" data-old_color="#000000" fill="#00AF80"/>
	</g>
</g><g>
	<g>
		<path class="active-path" d="M 176 256.232 h -64 c -4.418 0 -8 3.582 -8 8 v 144 c 0 4.418 3.582 8 8 8 h 64 c 4.418 0 8 -3.582 8 -8 v -144 C 184 259.813 180.418 256.232 176 256.232 Z M 168 400.232 h -48 v -128 h 48 V 400.232 Z" data-original="#000000" data-old_color="#000000" fill="#00AF80"/>
	</g>
</g><g>
	<g>
		<path class="active-path" d="M 432.465 7.769 c -17.801 -0.128 -32.335 14.198 -32.463 31.999 c -0.065 8.988 3.626 17.595 10.183 23.743 l -66.4 121.784 c -6.015 -1.665 -12.404 -1.37 -18.24 0.84 L 263.776 93.44 c 11.835 -13.125 10.789 -33.36 -2.337 -45.194 s -33.36 -10.789 -45.194 2.337 c -8.695 9.644 -10.701 23.586 -5.077 35.29 L 162.6 126.296 c -13.324 -9.719 -31.884 -7.544 -42.6 4.992 L 79.272 110.92 c 3.694 -17.283 -7.323 -34.288 -24.605 -37.981 c -17.283 -3.694 -34.288 7.322 -37.981 24.605 c -3.694 17.283 7.322 34.288 24.605 37.981 c 2.205 0.471 4.454 0.708 6.709 0.707 c 9.225 -0.03 17.982 -4.064 24 -11.056 l 40.728 20.368 c -3.843 17.25 7.026 34.35 24.276 38.193 c 17.25 3.843 34.35 -7.026 38.193 -24.276 c 1.563 -7.015 0.719 -14.352 -2.397 -20.829 l 48.568 -40.424 c 8.371 6.195 19.299 7.759 29.072 4.16 l 61.752 92.696 c -11.803 13.154 -10.707 33.386 2.448 45.189 c 13.154 11.803 33.386 10.707 45.189 -2.448 c 11.658 -12.993 10.752 -32.931 -2.036 -44.813 l 66.4 -121.784 c 2.55 0.666 5.173 1.01 7.808 1.024 c 17.801 0.128 32.335 -14.198 32.463 -31.999 S 450.265 7.898 432.465 7.769 Z M 48 120.232 c -8.837 0 -16 -7.163 -16 -16 s 7.163 -16 16 -16 s 16 7.163 16 16 S 56.837 120.232 48 120.232 Z M 144 168.232 c -8.837 0 -16 -7.163 -16 -16 s 7.163 -16 16 -16 s 16 7.163 16 16 S 152.837 168.232 144 168.232 Z M 240 88.232 c -8.837 0 -16 -7.163 -16 -16 s 7.163 -16 16 -16 s 16 7.163 16 16 S 248.837 88.232 240 88.232 Z M 336 232.232 c -8.837 0 -16 -7.163 -16 -16 s 7.163 -16 16 -16 s 16 7.163 16 16 S 344.837 232.232 336 232.232 Z M 432 56.232 c -8.837 0 -16 -7.163 -16 -16 s 7.163 -16 16 -16 s 16 7.163 16 16 S 440.837 56.232 432 56.232 Z" data-original="#000000" data-old_color="#000000" fill="#00AF80"/>
	</g>
</g><g>
	<g>
		<path class="active-path" d="M 472 424.232 H 8 c -4.418 0 -8 3.582 -8 8 v 32 c 0 4.418 3.582 8 8 8 h 464 c 4.418 0 8 -3.582 8 -8 v -32 C 480 427.813 476.418 424.232 472 424.232 Z M 464 456.232 H 16 v -16 h 448 V 456.232 Z" data-original="#000000" data-old_color="#000000" fill="#00AF80"/>
	</g>
</g></g> </svg>
